<svg width="1920" height="625" viewBox="0 0 1920 625" fill="none" xmlns="http://www.w3.org/2000/svg">
<path d="M0 0H1920V621H0V0Z" fill="#4F556E"/>
<line y1="-0.5" x2="661.195" y2="-0.5" transform="matrix(-0.355417 -0.934708 0.935833 -0.352443 331.001 621.01)" stroke="white" stroke-opacity="0.5"/>
<line x1="387.534" y1="621.188" x2="150.533" y2="0.178381" stroke="white" stroke-opacity="0.5"/>
<line y1="-0.5" x2="657.831" y2="-0.5" transform="matrix(-0.329872 -0.944025 0.945005 -0.327057 712.001 621.01)" stroke="white" stroke-opacity="0.5"/>
<line x1="1439.53" y1="624.175" x2="1220.53" y2="0.165838" stroke="white" stroke-opacity="0.5"/>
<line x1="1753.53" y1="622.175" x2="1535.53" y2="0.165476" stroke="white" stroke-opacity="0.5"/>
<line x1="1808.53" y1="621.166" x2="1590.53" y2="0.165523" stroke="white" stroke-opacity="0.5"/>
<line x1="1919.53" y1="500.165" x2="1744.53" y2="0.165157" stroke="white" stroke-opacity="0.5"/>
<line y1="-0.5" x2="657.831" y2="-0.5" transform="matrix(-0.329872 -0.944025 0.945005 -0.327057 720.001 621.01)" stroke="white" stroke-opacity="0.5"/>
<line x1="1445.53" y1="621.165" x2="1228.53" y2="0.165177" stroke="white" stroke-opacity="0.5"/>
<line x1="1762.53" y1="621.167" x2="1542.53" y2="0.167122" stroke="white" stroke-opacity="0.5"/>
<line x1="1815.53" y1="621.165" x2="1598.53" y2="0.164933" stroke="white" stroke-opacity="0.5"/>
<line x1="1919.53" y1="478.165" x2="1752.53" y2="0.164906" stroke="white" stroke-opacity="0.5"/>
<line y1="-0.5" x2="657.831" y2="-0.5" transform="matrix(-0.329872 -0.944025 0.945005 -0.327057 728.001 621.01)" stroke="white" stroke-opacity="0.5"/>
<line x1="1454.53" y1="621.166" x2="1236.53" y2="0.165857" stroke="white" stroke-opacity="0.5"/>
<line x1="1770.53" y1="621.167" x2="1550.53" y2="0.167104" stroke="white" stroke-opacity="0.5"/>
<line x1="1824.53" y1="621.166" x2="1606.53" y2="0.165613" stroke="white" stroke-opacity="0.5"/>
<line x1="1919.53" y1="458.164" x2="1760.53" y2="0.163984" stroke="white" stroke-opacity="0.5"/>
<line x1="735.528" y1="621.165" x2="518.529" y2="1.16055" stroke="white" stroke-opacity="0.5"/>
<line x1="1462.53" y1="621.167" x2="1243.53" y2="0.166584" stroke="white" stroke-opacity="0.5"/>
<line x1="1777.53" y1="621.167" x2="1557.53" y2="0.167104" stroke="white" stroke-opacity="0.5"/>
<line x1="1832.53" y1="621.166" x2="1613.53" y2="0.16634" stroke="white" stroke-opacity="0.5"/>
<line x1="1919.53" y1="434.165" x2="1767.53" y2="0.165337" stroke="white" stroke-opacity="0.5"/>
<line x1="742.528" y1="621.165" x2="526.528" y2="2.15526" stroke="white" stroke-opacity="0.5"/>
<line x1="1470.53" y1="621.167" x2="1251.53" y2="0.166526" stroke="white" stroke-opacity="0.5"/>
<line x1="1785.53" y1="621.167" x2="1565.53" y2="0.167104" stroke="white" stroke-opacity="0.5"/>
<line x1="1840.53" y1="621.166" x2="1621.53" y2="0.166282" stroke="white" stroke-opacity="0.5"/>
<line x1="1919.53" y1="413.165" x2="1775.53" y2="0.164618" stroke="white" stroke-opacity="0.5"/>
<line x1="751.528" y1="621.165" x2="534.591" y2="1.13891" stroke="white" stroke-opacity="0.5"/>
<line x1="1477.53" y1="621.166" x2="1259.53" y2="0.165915" stroke="white" stroke-opacity="0.5"/>
<line x1="1792.53" y1="621.166" x2="1573.53" y2="0.166404" stroke="white" stroke-opacity="0.5"/>
<line x1="1847.53" y1="621.166" x2="1629.53" y2="0.165671" stroke="white" stroke-opacity="0.5"/>
<line x1="1919.53" y1="391.164" x2="1783.53" y2="0.164334" stroke="white" stroke-opacity="0.5"/>
<line x1="757.528" y1="621.165" x2="541.528" y2="2.15526" stroke="white" stroke-opacity="0.5"/>
<line x1="1484.53" y1="621.167" x2="1265.53" y2="0.166526" stroke="white" stroke-opacity="0.5"/>
<line x1="1799.53" y1="621.167" x2="1579.53" y2="0.167104" stroke="white" stroke-opacity="0.5"/>
<line x1="1854.53" y1="621.166" x2="1635.53" y2="0.166282" stroke="white" stroke-opacity="0.5"/>
<line x1="1919.53" y1="373.165" x2="1789.53" y2="0.16454" stroke="white" stroke-opacity="0.5"/>
<line x1="303.534" y1="621.187" x2="67.5326" y2="0.177725" stroke="white" stroke-opacity="0.5"/>
<line x1="360.534" y1="621.187" x2="124.533" y2="0.177725" stroke="white" stroke-opacity="0.5"/>
<line y1="-0.5" x2="661.195" y2="-0.5" transform="matrix(-0.355417 -0.934708 0.935833 -0.352443 322.001 621.01)" stroke="white" stroke-opacity="0.5"/>
<line x1="378.534" y1="621.187" x2="142.533" y2="0.177725" stroke="white" stroke-opacity="0.5"/>
<line x1="294.534" y1="621.187" x2="58.5326" y2="0.177725" stroke="white" stroke-opacity="0.5"/>
<line x1="351.534" y1="621.187" x2="115.533" y2="0.177725" stroke="white" stroke-opacity="0.5"/>
<line x1="312.534" y1="621.188" x2="75.5329" y2="0.178381" stroke="white" stroke-opacity="0.5"/>
<line x1="369.49" y1="621.205" x2="132.533" y2="0.178369" stroke="white" stroke-opacity="0.5"/>
<line x1="285.533" y1="621.187" x2="50.5323" y2="0.176957" stroke="white" stroke-opacity="0.5"/>
<line x1="342.534" y1="621.188" x2="105.533" y2="0.178381" stroke="white" stroke-opacity="0.5"/>
<line x1="330.534" y1="621.187" x2="94.5326" y2="0.177725" stroke="white" stroke-opacity="0.5"/>
<line x1="321.534" y1="621.187" x2="85.5326" y2="0.177725" stroke="white" stroke-opacity="0.5"/>
<line x1="1919.53" y1="161.159" x2="1865.53" y2="0.159024" stroke="white" stroke-opacity="0.5"/>
<line x1="1919.53" y1="135.161" x2="1873.53" y2="0.161258" stroke="white" stroke-opacity="0.5"/>
<line x1="1919.53" y1="109.165" x2="1881.53" y2="0.164594" stroke="white" stroke-opacity="0.5"/>
<line x1="1919.53" y1="84.1731" x2="1888.53" y2="0.173161" stroke="white" stroke-opacity="0.5"/>
<line x1="1919.53" y1="63.1715" x2="1896.53" y2="0.171462" stroke="white" stroke-opacity="0.5"/>
<line x1="1919.53" y1="43.1647" x2="1904.53" y2="0.164742" stroke="white" stroke-opacity="0.5"/>
<line x1="1919.53" y1="25.1694" x2="1910.53" y2="0.16935" stroke="white" stroke-opacity="0.5"/>
</svg>
