<svg width="1920" height="8875" viewBox="0 0 1920 8875" fill="none" xmlns="http://www.w3.org/2000/svg">
<g clip-path="url(#clip0_106_88)">
<line x1="1018.41" y1="-1164.51" x2="2098.41" y2="1853.49" stroke="black" stroke-opacity="0.5" stroke-width="3"/>
<line y1="-1.5" x2="2507.88" y2="-1.5" transform="matrix(0.33831 0.941035 -0.942022 0.335552 677 -1109)" stroke="black" stroke-opacity="0.5" stroke-width="3"/>
<line x1="-59.5877" y1="-1164.51" x2="1020.41" y2="1853.49" stroke="black" stroke-opacity="0.5" stroke-width="3"/>
<line x1="-96.5877" y1="874.495" x2="983.412" y2="3892.49" stroke="black" stroke-opacity="0.5" stroke-width="3"/>
<line y1="-1.5" x2="3556.05" y2="-1.5" transform="matrix(-0.598395 0.801202 -0.823282 -0.567633 2079.51 4236.21)" stroke="black" stroke-opacity="0.5" stroke-width="3"/>
<line y1="-1.5" x2="3556.05" y2="-1.5" transform="matrix(-0.598395 0.801202 -0.823282 -0.567633 1363.92 4062)" stroke="black" stroke-opacity="0.5" stroke-width="3"/>
<line y1="-1.5" x2="3556.05" y2="-1.5" transform="matrix(-0.598395 0.801202 -0.823282 -0.567633 1219.92 3893)" stroke="black" stroke-opacity="0.5" stroke-width="3"/>
<line y1="-1.5" x2="3556.05" y2="-1.5" transform="matrix(-0.598395 0.801202 -0.823282 -0.567633 524.919 3977)" stroke="black" stroke-opacity="0.5" stroke-width="3"/>
<line y1="-1.5" x2="2992.19" y2="-1.5" transform="matrix(-0.612617 0.79038 -0.832931 -0.553377 2096.15 5006.94)" stroke="black" stroke-opacity="0.5" stroke-width="3"/>
<line x1="-162.508" y1="913.784" x2="917.492" y2="3931.78" stroke="black" stroke-opacity="0.5" stroke-width="120"/>
<line y1="-60" x2="3556.05" y2="-60" transform="matrix(-0.598395 0.801202 -0.823282 -0.567633 1945.92 4164)" stroke="black" stroke-opacity="0.5" stroke-width="120"/>
<line y1="-32.5" x2="1000" y2="-32.5" transform="matrix(-0.598395 0.801202 -0.823282 -0.567633 640.395 5388)" stroke="black" stroke-opacity="0.5" stroke-width="65"/>
<line y1="-32.5" x2="1000" y2="-32.5" transform="matrix(-0.612791 0.790245 -0.812878 -0.582434 1834.59 5643.48)" stroke="black" stroke-opacity="0.5" stroke-width="65"/>
<line y1="-60" x2="2992.19" y2="-60" transform="matrix(-0.612617 0.79038 -0.832931 -0.553377 1981.07 4947)" stroke="black" stroke-opacity="0.5" stroke-width="120"/>
<line x1="1203.41" y1="1134.5" x2="2161.41" y2="3814.49" stroke="black" stroke-opacity="0.5" stroke-width="3"/>
<path d="M-140.392 -1167.54L932 1846.5" stroke="black" stroke-opacity="0.5" stroke-width="116"/>
<path d="M-263.511 -1133L593.577 1279.39" stroke="black" stroke-opacity="0.5" stroke-width="116"/>
<path d="M554.489 -1266L1464.54 1294.38" stroke="black" stroke-opacity="0.5" stroke-width="116"/>
<line x1="-34.5877" y1="-1173.51" x2="1045.41" y2="1844.49" stroke="black" stroke-opacity="0.5" stroke-width="3"/>
<line x1="-71.5877" y1="865.495" x2="1008.41" y2="3883.49" stroke="black" stroke-opacity="0.5" stroke-width="3"/>
<line y1="-1.5" x2="3556.05" y2="-1.5" transform="matrix(-0.598395 0.801202 -0.823282 -0.567633 2104.13 4253.11)" stroke="black" stroke-opacity="0.5" stroke-width="3"/>
<line y1="-1.5" x2="3556.05" y2="-1.5" transform="matrix(-0.598395 0.801202 -0.823282 -0.567633 1388.53 4078.9)" stroke="black" stroke-opacity="0.5" stroke-width="3"/>
<line y1="-1.5" x2="3556.05" y2="-1.5" transform="matrix(-0.598395 0.801202 -0.823282 -0.567633 1244.53 3909.9)" stroke="black" stroke-opacity="0.5" stroke-width="3"/>
<line y1="-1.5" x2="3556.05" y2="-1.5" transform="matrix(-0.598395 0.801202 -0.823282 -0.567633 549.533 3993.9)" stroke="black" stroke-opacity="0.5" stroke-width="3"/>
<line y1="-1.5" x2="2992.19" y2="-1.5" transform="matrix(-0.612617 0.79038 -0.832931 -0.553377 2117.35 5020.97)" stroke="black" stroke-opacity="0.5" stroke-width="3"/>
<line x1="1233.41" y1="1134.5" x2="2186.41" y2="3805.5" stroke="black" stroke-opacity="0.5" stroke-width="3"/>
<line x1="-9.58771" y1="-1173.51" x2="1070.41" y2="1844.49" stroke="black" stroke-opacity="0.5" stroke-width="3"/>
<line x1="-46.5877" y1="865.495" x2="1033.41" y2="3883.49" stroke="black" stroke-opacity="0.5" stroke-width="3"/>
<line y1="-1.5" x2="3556.05" y2="-1.5" transform="matrix(-0.598395 0.801202 -0.823282 -0.567633 2120.31 4275.61)" stroke="black" stroke-opacity="0.5" stroke-width="3"/>
<line y1="-1.5" x2="3556.05" y2="-1.5" transform="matrix(-0.598395 0.801202 -0.823282 -0.567633 1404.72 4101.4)" stroke="black" stroke-opacity="0.5" stroke-width="3"/>
<line y1="-1.5" x2="3556.05" y2="-1.5" transform="matrix(-0.598395 0.801202 -0.823282 -0.567633 1260.72 3932.4)" stroke="black" stroke-opacity="0.5" stroke-width="3"/>
<line y1="-1.5" x2="3556.05" y2="-1.5" transform="matrix(-0.598395 0.801202 -0.823282 -0.567633 565.717 4016.4)" stroke="black" stroke-opacity="0.5" stroke-width="3"/>
<line y1="-1.5" x2="2000" y2="-1.5" transform="matrix(-0.598395 0.801202 -0.823282 -0.567633 2266.92 5644)" stroke="black" stroke-opacity="0.5" stroke-width="3"/>
<line y1="-1.5" x2="2000" y2="-1.5" transform="matrix(0.249572 0.968356 -0.958213 0.286054 -74 7405)" stroke="black" stroke-opacity="0.5" stroke-width="3"/>
<line y1="-1.5" x2="2000" y2="-1.5" transform="matrix(0.249572 0.968356 -0.958213 0.286054 73 7359)" stroke="black" stroke-opacity="0.5" stroke-width="3"/>
<line y1="-1.5" x2="2992.19" y2="-1.5" transform="matrix(-0.612617 0.79038 -0.832931 -0.553377 2131.29 5039.64)" stroke="black" stroke-opacity="0.5" stroke-width="3"/>
<line x1="1131.41" y1="787.495" x2="2211.41" y2="3805.49" stroke="black" stroke-opacity="0.5" stroke-width="3"/>
<line x1="15.4123" y1="-1173.51" x2="1095.41" y2="1844.49" stroke="black" stroke-opacity="0.5" stroke-width="3"/>
<line x1="-21.5877" y1="865.495" x2="1058.41" y2="3883.49" stroke="black" stroke-opacity="0.5" stroke-width="3"/>
<line y1="-1.5" x2="3556.05" y2="-1.5" transform="matrix(-0.598395 0.801202 -0.823282 -0.567633 2136.49 4298.11)" stroke="black" stroke-opacity="0.5" stroke-width="3"/>
<line y1="-1.5" x2="3556.05" y2="-1.5" transform="matrix(-0.598395 0.801202 -0.823282 -0.567633 1420.9 4123.9)" stroke="black" stroke-opacity="0.5" stroke-width="3"/>
<line y1="-1.5" x2="3556.05" y2="-1.5" transform="matrix(-0.598395 0.801202 -0.823282 -0.567633 1276.9 3954.9)" stroke="black" stroke-opacity="0.5" stroke-width="3"/>
<line y1="-1.5" x2="3556.05" y2="-1.5" transform="matrix(-0.598395 0.801202 -0.823282 -0.567633 581.9 4038.9)" stroke="black" stroke-opacity="0.5" stroke-width="3"/>
<line y1="-1.5" x2="2000" y2="-1.5" transform="matrix(-0.598395 0.801202 -0.823282 -0.567633 2283.1 5666.5)" stroke="black" stroke-opacity="0.5" stroke-width="3"/>
<line y1="-1.5" x2="2000" y2="-1.5" transform="matrix(0.249572 0.968356 -0.958213 0.286054 -46.3232 7406.48)" stroke="black" stroke-opacity="0.5" stroke-width="3"/>
<line y1="-1.5" x2="2000" y2="-1.5" transform="matrix(0.249572 0.968356 -0.958213 0.286054 100.677 7360.48)" stroke="black" stroke-opacity="0.5" stroke-width="3"/>
<line y1="-1.5" x2="2000" y2="-1.5" transform="matrix(0.249572 0.968356 -0.958213 0.286054 1135 7291)" stroke="black" stroke-opacity="0.5" stroke-width="3"/>
<line y1="-1.5" x2="2992.19" y2="-1.5" transform="matrix(-0.612617 0.79038 -0.832931 -0.553377 2145.24 5058.32)" stroke="black" stroke-opacity="0.5" stroke-width="3"/>
<line x1="1156.41" y1="787.495" x2="2236.41" y2="3805.49" stroke="black" stroke-opacity="0.5" stroke-width="3"/>
<line x1="40.4123" y1="-1173.51" x2="1120.41" y2="1844.49" stroke="black" stroke-opacity="0.5" stroke-width="3"/>
<line x1="3.41229" y1="865.495" x2="1083.41" y2="3883.49" stroke="black" stroke-opacity="0.5" stroke-width="3"/>
<line y1="-1.5" x2="3556.05" y2="-1.5" transform="matrix(-0.598395 0.801202 -0.823282 -0.567633 2152.68 4320.61)" stroke="black" stroke-opacity="0.5" stroke-width="3"/>
<line y1="-1.5" x2="3556.05" y2="-1.5" transform="matrix(-0.598395 0.801202 -0.823282 -0.567633 1437.08 4146.4)" stroke="black" stroke-opacity="0.5" stroke-width="3"/>
<line y1="-1.5" x2="3556.05" y2="-1.5" transform="matrix(-0.598395 0.801202 -0.823282 -0.567633 1293.08 3977.4)" stroke="black" stroke-opacity="0.5" stroke-width="3"/>
<line y1="-1.5" x2="3556.05" y2="-1.5" transform="matrix(-0.598395 0.801202 -0.823282 -0.567633 598.084 4061.4)" stroke="black" stroke-opacity="0.5" stroke-width="3"/>
<line y1="-1.5" x2="2000" y2="-1.5" transform="matrix(-0.598395 0.801202 -0.823282 -0.567633 2299.29 5689)" stroke="black" stroke-opacity="0.5" stroke-width="3"/>
<line y1="-1.5" x2="2000" y2="-1.5" transform="matrix(0.249572 0.968356 -0.958213 0.286054 -18.6475 7407.97)" stroke="black" stroke-opacity="0.5" stroke-width="3"/>
<line y1="-1.5" x2="2000" y2="-1.5" transform="matrix(0.249572 0.968356 -0.958213 0.286054 128.353 7361.97)" stroke="black" stroke-opacity="0.5" stroke-width="3"/>
<line y1="-1.5" x2="2000" y2="-1.5" transform="matrix(0.249572 0.968356 -0.958213 0.286054 1162.68 7292.48)" stroke="black" stroke-opacity="0.5" stroke-width="3"/>
<line y1="-1.5" x2="2992.19" y2="-1.5" transform="matrix(-0.612617 0.79038 -0.832931 -0.553377 2159.18 5077)" stroke="black" stroke-opacity="0.5" stroke-width="3"/>
<line x1="1181.41" y1="787.495" x2="2261.41" y2="3805.49" stroke="black" stroke-opacity="0.5" stroke-width="3"/>
<line x1="65.4123" y1="-1173.51" x2="1145.41" y2="1844.49" stroke="black" stroke-opacity="0.5" stroke-width="3"/>
<line x1="28.4123" y1="865.495" x2="1108.41" y2="3883.49" stroke="black" stroke-opacity="0.5" stroke-width="3"/>
<line y1="-1.5" x2="3556.05" y2="-1.5" transform="matrix(-0.598395 0.801202 -0.823282 -0.567633 2168.86 4343.11)" stroke="black" stroke-opacity="0.5" stroke-width="3"/>
<line y1="-1.5" x2="3556.05" y2="-1.5" transform="matrix(-0.598395 0.801202 -0.823282 -0.567633 1453.27 4168.9)" stroke="black" stroke-opacity="0.5" stroke-width="3"/>
<line y1="-1.5" x2="3556.05" y2="-1.5" transform="matrix(-0.598395 0.801202 -0.823282 -0.567633 1309.27 3999.9)" stroke="black" stroke-opacity="0.5" stroke-width="3"/>
<line y1="-1.5" x2="3556.05" y2="-1.5" transform="matrix(-0.598395 0.801202 -0.823282 -0.567633 614.267 4083.9)" stroke="black" stroke-opacity="0.5" stroke-width="3"/>
<line y1="-1.5" x2="2000" y2="-1.5" transform="matrix(-0.598395 0.801202 -0.823282 -0.567633 2315.47 5711.5)" stroke="black" stroke-opacity="0.5" stroke-width="3"/>
<line y1="-1.5" x2="2000" y2="-1.5" transform="matrix(0.249572 0.968356 -0.958213 0.286054 9.0293 7409.45)" stroke="black" stroke-opacity="0.5" stroke-width="3"/>
<line y1="-1.5" x2="2000" y2="-1.5" transform="matrix(0.249572 0.968356 -0.958213 0.286054 156.029 7363.45)" stroke="black" stroke-opacity="0.5" stroke-width="3"/>
<line y1="-1.5" x2="2000" y2="-1.5" transform="matrix(0.249572 0.968356 -0.958213 0.286054 1190.35 7293.97)" stroke="black" stroke-opacity="0.5" stroke-width="3"/>
<line y1="-1.5" x2="2992.19" y2="-1.5" transform="matrix(-0.612617 0.79038 -0.832931 -0.553377 2173.12 5095.67)" stroke="black" stroke-opacity="0.5" stroke-width="3"/>
<line x1="1206.41" y1="787.495" x2="2286.41" y2="3805.49" stroke="black" stroke-opacity="0.5" stroke-width="3"/>
<line x1="90.4123" y1="-1173.51" x2="1170.41" y2="1844.49" stroke="black" stroke-opacity="0.5" stroke-width="3"/>
<line x1="53.4123" y1="865.495" x2="1133.41" y2="3883.49" stroke="black" stroke-opacity="0.5" stroke-width="3"/>
<line y1="-1.5" x2="3556.05" y2="-1.5" transform="matrix(-0.598395 0.801202 -0.823282 -0.567633 2185.04 4365.61)" stroke="black" stroke-opacity="0.5" stroke-width="3"/>
<line y1="-1.5" x2="3556.05" y2="-1.5" transform="matrix(-0.598395 0.801202 -0.823282 -0.567633 1469.45 4191.4)" stroke="black" stroke-opacity="0.5" stroke-width="3"/>
<line y1="-1.5" x2="3556.05" y2="-1.5" transform="matrix(-0.598395 0.801202 -0.823282 -0.567633 1325.45 4022.4)" stroke="black" stroke-opacity="0.5" stroke-width="3"/>
<line y1="-1.5" x2="3556.05" y2="-1.5" transform="matrix(-0.598395 0.801202 -0.823282 -0.567633 630.45 4106.4)" stroke="black" stroke-opacity="0.5" stroke-width="3"/>
<line y1="-1.5" x2="2000" y2="-1.5" transform="matrix(-0.598395 0.801202 -0.823282 -0.567633 2331.65 5734)" stroke="black" stroke-opacity="0.5" stroke-width="3"/>
<line y1="-1.5" x2="2000" y2="-1.5" transform="matrix(0.249572 0.968356 -0.958213 0.286054 36.7041 7410.93)" stroke="black" stroke-opacity="0.5" stroke-width="3"/>
<line y1="-1.5" x2="2000" y2="-1.5" transform="matrix(0.249572 0.968356 -0.958213 0.286054 183.704 7364.93)" stroke="black" stroke-opacity="0.5" stroke-width="3"/>
<line y1="-1.5" x2="2000" y2="-1.5" transform="matrix(0.249572 0.968356 -0.958213 0.286054 1218.03 7295.45)" stroke="black" stroke-opacity="0.5" stroke-width="3"/>
<line y1="-1.5" x2="2992.19" y2="-1.5" transform="matrix(-0.612617 0.79038 -0.832931 -0.553377 2187.06 5114.35)" stroke="black" stroke-opacity="0.5" stroke-width="3"/>
<line x1="115.412" y1="-1173.51" x2="1195.41" y2="1844.49" stroke="black" stroke-opacity="0.5" stroke-width="3"/>
<line x1="78.4123" y1="865.495" x2="1158.41" y2="3883.49" stroke="black" stroke-opacity="0.5" stroke-width="3"/>
<line y1="-1.5" x2="3556.05" y2="-1.5" transform="matrix(-0.598395 0.801202 -0.823282 -0.567633 2201.23 4388.11)" stroke="black" stroke-opacity="0.5" stroke-width="3"/>
<line y1="-1.5" x2="3556.05" y2="-1.5" transform="matrix(-0.598395 0.801202 -0.823282 -0.567633 1485.63 4213.91)" stroke="black" stroke-opacity="0.5" stroke-width="3"/>
<line y1="-1.5" x2="3556.05" y2="-1.5" transform="matrix(-0.598395 0.801202 -0.823282 -0.567633 1341.63 4044.91)" stroke="black" stroke-opacity="0.5" stroke-width="3"/>
<line y1="-1.5" x2="3556.05" y2="-1.5" transform="matrix(-0.598395 0.801202 -0.823282 -0.567633 646.634 4128.91)" stroke="black" stroke-opacity="0.5" stroke-width="3"/>
<line y1="-1.5" x2="2000" y2="-1.5" transform="matrix(-0.598395 0.801202 -0.823282 -0.567633 2347.84 5756.5)" stroke="black" stroke-opacity="0.5" stroke-width="3"/>
<line y1="-1.5" x2="2000" y2="-1.5" transform="matrix(0.249572 0.968356 -0.958213 0.286054 64.3818 7412.42)" stroke="black" stroke-opacity="0.5" stroke-width="3"/>
<line y1="-21.5" x2="2000" y2="-21.5" transform="matrix(0.249572 0.968356 -0.958213 0.286054 211.382 7366.42)" stroke="black" stroke-opacity="0.5" stroke-width="43"/>
<line y1="-21.5" x2="2000" y2="-21.5" transform="matrix(0.249572 0.968356 -0.958213 0.286054 259 7356)" stroke="black" stroke-opacity="0.5" stroke-width="43"/>
<line y1="-21.5" x2="2000" y2="-21.5" transform="matrix(0.249572 0.968356 -0.958213 0.286054 1250 7336)" stroke="black" stroke-opacity="0.5" stroke-width="43"/>
<line y1="-131" x2="2000" y2="-131" transform="matrix(0.249572 0.968356 -0.958213 0.286054 1385 7323)" stroke="black" stroke-opacity="0.5" stroke-width="262"/>
<line y1="-1.5" x2="2992.19" y2="-1.5" transform="matrix(-0.612617 0.79038 -0.832931 -0.553377 2201 5133.03)" stroke="black" stroke-opacity="0.5" stroke-width="3"/>
<line x1="1577.66" y1="801.387" x2="2251.52" y2="2684.45" stroke="black" stroke-opacity="0.5" stroke-width="63"/>
<line x1="123.412" y1="-1883.51" x2="1203.41" y2="1134.49" stroke="black" stroke-opacity="0.5" stroke-width="3"/>
<line x1="133.412" y1="-1883.51" x2="1213.41" y2="1134.49" stroke="black" stroke-opacity="0.5" stroke-width="3"/>
<line x1="143.412" y1="-1883.51" x2="1223.41" y2="1134.49" stroke="black" stroke-opacity="0.5" stroke-width="3"/>
<line x1="153.412" y1="-1883.51" x2="1233.41" y2="1134.49" stroke="black" stroke-opacity="0.5" stroke-width="3"/>
<line x1="163.412" y1="-1883.51" x2="1243.41" y2="1134.49" stroke="black" stroke-opacity="0.5" stroke-width="3"/>
<line x1="1043.41" y1="-1164.51" x2="2123.41" y2="1853.49" stroke="black" stroke-opacity="0.5" stroke-width="3"/>
<line y1="-1.5" x2="2507.88" y2="-1.5" transform="matrix(0.33831 0.941035 -0.942022 0.335552 696.64 -1109)" stroke="black" stroke-opacity="0.5" stroke-width="3"/>
<line x1="1068.41" y1="-1164.51" x2="2148.41" y2="1853.49" stroke="black" stroke-opacity="0.5" stroke-width="3"/>
<line y1="-1.5" x2="2507.88" y2="-1.5" transform="matrix(0.33831 0.941035 -0.942022 0.335552 716.279 -1109)" stroke="black" stroke-opacity="0.5" stroke-width="3"/>
<line x1="1093.41" y1="-1164.51" x2="2173.41" y2="1853.49" stroke="black" stroke-opacity="0.5" stroke-width="3"/>
<line y1="-1.5" x2="2507.88" y2="-1.5" transform="matrix(0.33831 0.941035 -0.942022 0.335552 735.92 -1109)" stroke="black" stroke-opacity="0.5" stroke-width="3"/>
<line x1="1118.41" y1="-1164.51" x2="2198.41" y2="1853.49" stroke="black" stroke-opacity="0.5" stroke-width="3"/>
<line y1="-1.5" x2="2507.88" y2="-1.5" transform="matrix(0.33831 0.941035 -0.942022 0.335552 755.56 -1109)" stroke="black" stroke-opacity="0.5" stroke-width="3"/>
<line x1="1143.41" y1="-1164.51" x2="2223.41" y2="1853.49" stroke="black" stroke-opacity="0.5" stroke-width="3"/>
<line x1="1168.41" y1="-1164.51" x2="2248.41" y2="1853.49" stroke="black" stroke-opacity="0.5" stroke-width="3"/>
<line x1="1193.41" y1="-1164.51" x2="2273.41" y2="1853.49" stroke="black" stroke-opacity="0.5" stroke-width="3"/>
<line x1="1218.41" y1="-1164.51" x2="2298.41" y2="1853.49" stroke="black" stroke-opacity="0.5" stroke-width="3"/>
<line x1="1243.41" y1="-1164.51" x2="2323.41" y2="1853.49" stroke="black" stroke-opacity="0.5" stroke-width="3"/>
<line x1="1268.41" y1="-1164.51" x2="2348.41" y2="1853.49" stroke="black" stroke-opacity="0.5" stroke-width="3"/>
<line x1="1293.41" y1="-1164.51" x2="2373.41" y2="1853.49" stroke="black" stroke-opacity="0.5" stroke-width="3"/>
<line x1="1357.49" y1="-1178.49" x2="2437.49" y2="1839.51" stroke="black" stroke-opacity="0.5" stroke-width="86"/>
</g>
<defs>
<clipPath id="clip0_106_88">
<rect width="1920" height="8875" fill="white"/>
</clipPath>
</defs>
</svg>
