<svg width="1920" height="691" viewBox="0 0 1920 691" fill="none" xmlns="http://www.w3.org/2000/svg">
<path d="M0 0H1920V691H0V0Z" fill="#4F556E"/>
<line x1="357.779" y1="0.604368" x2="-16.2033" y2="493.604" stroke="white" stroke-opacity="0.5" stroke-width="2"/>
<line x1="1524.78" y1="0.604368" x2="1150.8" y2="493.604" stroke="white" stroke-opacity="0.5" stroke-width="2"/>
<line x1="1127.97" y1="91.7465" x2="1284.83" y2="690.332" stroke="white" stroke-opacity="0.5" stroke-width="2"/>
<line x1="1101.97" y1="91.7465" x2="1258.83" y2="690.332" stroke="white" stroke-opacity="0.5" stroke-width="2"/>
<line x1="1072.97" y1="91.7465" x2="1229.83" y2="690.332" stroke="white" stroke-opacity="0.5" stroke-width="2"/>
<line x1="1045.97" y1="91.7465" x2="1202.83" y2="690.332" stroke="white" stroke-opacity="0.5" stroke-width="2"/>
<line x1="1491.78" y1="0.604368" x2="1117.8" y2="493.604" stroke="white" stroke-opacity="0.5" stroke-width="2"/>
<line x1="1458.78" y1="0.604368" x2="1084.8" y2="493.604" stroke="white" stroke-opacity="0.5" stroke-width="2"/>
<line x1="1425.78" y1="0.604368" x2="1051.8" y2="493.604" stroke="white" stroke-opacity="0.5" stroke-width="2"/>
<line x1="1392.78" y1="0.604368" x2="1018.8" y2="493.604" stroke="white" stroke-opacity="0.5" stroke-width="2"/>
<line x1="1359.78" y1="0.604368" x2="985.797" y2="493.604" stroke="white" stroke-opacity="0.5" stroke-width="2"/>
<line x1="324.779" y1="0.604368" x2="-49.2033" y2="493.604" stroke="white" stroke-opacity="0.5" stroke-width="2"/>
<line x1="290.779" y1="0.604368" x2="-83.2033" y2="493.604" stroke="white" stroke-opacity="0.5" stroke-width="2"/>
<line x1="257.779" y1="0.604368" x2="-116.203" y2="493.604" stroke="white" stroke-opacity="0.5" stroke-width="2"/>
<line x1="224.779" y1="0.604368" x2="-149.203" y2="493.604" stroke="white" stroke-opacity="0.5" stroke-width="2"/>
<line x1="191.779" y1="0.604368" x2="-182.203" y2="493.604" stroke="white" stroke-opacity="0.5" stroke-width="2"/>
<line x1="158.779" y1="0.604368" x2="-215.203" y2="493.604" stroke="white" stroke-opacity="0.5" stroke-width="2"/>
<line x1="122.779" y1="0.604368" x2="-251.203" y2="493.604" stroke="white" stroke-opacity="0.5" stroke-width="2"/>
</svg>
