<svg width="1920" height="1569" viewBox="0 0 1920 1569" fill="none" xmlns="http://www.w3.org/2000/svg">
<path d="M0 0H1920V1568H0V0Z" fill="#4F556E"/>
<line x1="314.423" y1="0.265912" x2="0.42343" y2="500.266" stroke="white"/>
<line x1="419.421" y1="0.269144" x2="0.421355" y2="656.269" stroke="white"/>
<line x1="305.423" y1="0.265912" x2="-8.57657" y2="500.266" stroke="white"/>
<line x1="410.421" y1="0.269117" x2="0.421414" y2="642.269" stroke="white"/>
<line x1="296.423" y1="0.265912" x2="-17.5766" y2="500.266" stroke="white"/>
<line x1="401.422" y1="0.268785" x2="0.421599" y2="629.269" stroke="white"/>
<line x1="287.423" y1="0.265912" x2="-26.5766" y2="500.266" stroke="white"/>
<line x1="392.422" y1="0.268128" x2="0.422044" y2="617.268" stroke="white"/>
<line x1="278.423" y1="0.265912" x2="-35.5766" y2="500.266" stroke="white"/>
<line x1="383.422" y1="0.268075" x2="0.422083" y2="603.268" stroke="white"/>
<line x1="269.423" y1="0.265912" x2="-44.5766" y2="500.266" stroke="white"/>
<line x1="374.422" y1="0.26802" x2="0.422119" y2="589.268" stroke="white"/>
<line x1="261.423" y1="0.265912" x2="-52.5766" y2="500.266" stroke="white"/>
<line x1="366.422" y1="0.268485" x2="0.421781" y2="575.268" stroke="white"/>
<line x1="252.423" y1="0.265912" x2="-61.5766" y2="500.266" stroke="white"/>
<line x1="357.422" y1="0.268098" x2="0.422054" y2="562.268" stroke="white"/>
<line x1="243.423" y1="0.265912" x2="-70.5766" y2="500.266" stroke="white"/>
<line x1="348.422" y1="0.267691" x2="0.422313" y2="549.268" stroke="white"/>
<line x1="234.423" y1="0.265912" x2="-79.5766" y2="500.266" stroke="white"/>
<line x1="339.423" y1="0.267263" x2="0.422558" y2="536.267" stroke="white"/>
<line x1="225.423" y1="0.265912" x2="-88.5766" y2="500.266" stroke="white"/>
<line x1="330.423" y1="0.266449" x2="0.423102" y2="524.266" stroke="white"/>
<line x1="323.422" y1="0.267585" x2="-1.57763" y2="513.268" stroke="white"/>
<line x1="428.421" y1="0.269455" x2="0.421187" y2="669.269" stroke="white"/>
<line x1="1678.42" y1="603.269" x2="1250.42" y2="1272.27" stroke="white"/>
<line x1="1683.42" y1="605.269" x2="1255.42" y2="1274.27" stroke="white"/>
<line x1="1688.42" y1="608.269" x2="1260.42" y2="1277.27" stroke="white"/>
<line x1="1693.42" y1="611.269" x2="1265.42" y2="1280.27" stroke="white"/>
<line x1="1698.42" y1="613.269" x2="1270.42" y2="1282.27" stroke="white"/>
<line x1="1703.42" y1="617.269" x2="1275.42" y2="1286.27" stroke="white"/>
<line x1="1708.42" y1="619.269" x2="1280.42" y2="1288.27" stroke="white"/>
<line x1="411.409" y1="1254.29" x2="190.409" y2="1568.29" stroke="white"/>
<line x1="378.409" y1="1254.29" x2="157.409" y2="1568.29" stroke="white"/>
<line x1="621.282" y1="167.975" x2="138.282" y2="942.975" stroke="white" stroke-opacity="0.5" stroke-width="102"/>
<line x1="1963.28" y1="31.9747" x2="1480.28" y2="806.975" stroke="white" stroke-opacity="0.5" stroke-width="102"/>
<line x1="314.423" y1="0.265912" x2="0.42343" y2="500.266" stroke="white"/>
<line x1="419.421" y1="0.269144" x2="0.421355" y2="656.269" stroke="white"/>
<line x1="305.423" y1="0.265912" x2="-8.57657" y2="500.266" stroke="white"/>
<line x1="410.421" y1="0.269117" x2="0.421414" y2="642.269" stroke="white"/>
<line x1="296.423" y1="0.265912" x2="-17.5766" y2="500.266" stroke="white"/>
<line x1="401.422" y1="0.268785" x2="0.421599" y2="629.269" stroke="white"/>
<line x1="287.423" y1="0.265912" x2="-26.5766" y2="500.266" stroke="white"/>
<line x1="392.422" y1="0.268128" x2="0.422044" y2="617.268" stroke="white"/>
<line x1="278.423" y1="0.265912" x2="-35.5766" y2="500.266" stroke="white"/>
<line x1="383.422" y1="0.268075" x2="0.422083" y2="603.268" stroke="white"/>
<line x1="269.423" y1="0.265912" x2="-44.5766" y2="500.266" stroke="white"/>
<line x1="374.422" y1="0.26802" x2="0.422119" y2="589.268" stroke="white"/>
<line x1="261.423" y1="0.265912" x2="-52.5766" y2="500.266" stroke="white"/>
<line x1="366.422" y1="0.268485" x2="0.421781" y2="575.268" stroke="white"/>
<line x1="252.423" y1="0.265912" x2="-61.5766" y2="500.266" stroke="white"/>
<line x1="357.422" y1="0.268098" x2="0.422054" y2="562.268" stroke="white"/>
<line x1="243.423" y1="0.265912" x2="-70.5766" y2="500.266" stroke="white"/>
<line x1="348.422" y1="0.267691" x2="0.422313" y2="549.268" stroke="white"/>
<line x1="234.423" y1="0.265912" x2="-79.5766" y2="500.266" stroke="white"/>
<line x1="339.423" y1="0.267263" x2="0.422558" y2="536.267" stroke="white"/>
<line x1="225.423" y1="0.265912" x2="-88.5766" y2="500.266" stroke="white"/>
<line x1="330.423" y1="0.266449" x2="0.423102" y2="524.266" stroke="white"/>
<line x1="323.422" y1="0.267585" x2="-1.57763" y2="513.268" stroke="white"/>
<line x1="428.421" y1="0.269455" x2="0.421187" y2="669.269" stroke="white"/>
<line x1="1678.42" y1="603.269" x2="1250.42" y2="1272.27" stroke="white"/>
<line x1="1683.42" y1="605.269" x2="1255.42" y2="1274.27" stroke="white"/>
<line x1="1688.42" y1="608.269" x2="1260.42" y2="1277.27" stroke="white"/>
<line x1="1693.42" y1="611.269" x2="1265.42" y2="1280.27" stroke="white"/>
<line x1="1698.42" y1="613.269" x2="1270.42" y2="1282.27" stroke="white"/>
<line x1="1703.42" y1="617.269" x2="1275.42" y2="1286.27" stroke="white"/>
<line x1="1708.42" y1="619.269" x2="1280.42" y2="1288.27" stroke="white"/>
<line x1="411.409" y1="1254.29" x2="190.409" y2="1568.29" stroke="white"/>
<line x1="911.409" y1="1254.29" x2="690.409" y2="1568.29" stroke="white"/>
<line x1="943.409" y1="1254.29" x2="722.409" y2="1568.29" stroke="white"/>
<line x1="976.409" y1="1254.29" x2="755.409" y2="1568.29" stroke="white"/>
<line x1="1009.41" y1="1254.29" x2="788.409" y2="1568.29" stroke="white"/>
<line x1="1042.41" y1="1254.29" x2="821.409" y2="1568.29" stroke="white"/>
<line x1="1077.41" y1="1254.29" x2="856.409" y2="1568.29" stroke="white"/>
<line x1="1114.41" y1="1254.29" x2="893.409" y2="1568.29" stroke="white"/>
<line x1="1147.41" y1="1254.29" x2="926.409" y2="1568.29" stroke="white"/>
<line x1="1181.41" y1="1254.29" x2="960.409" y2="1568.29" stroke="white"/>
<line x1="411.409" y1="1207.29" x2="157.409" y2="1568.29" stroke="white"/>
<line x1="411.406" y1="1168.29" x2="123.406" y2="1568.29" stroke="white"/>
<line x1="400.406" y1="1137.29" x2="90.4059" y2="1568.29" stroke="white"/>
<line x1="400.405" y1="1095.29" x2="57.4048" y2="1568.29" stroke="white"/>
<line x1="400.402" y1="1059.3" x2="24.4022" y2="1568.3" stroke="white"/>
<line x1="1352.41" y1="0.287779" x2="1131.41" y2="314.288" stroke="white"/>
<line x1="1283.31" y1="49.0723" x2="1062.31" y2="363.072" stroke="white" stroke-opacity="0.5" stroke-width="35"/>
<line x1="1250.31" y1="26.0723" x2="1029.31" y2="340.072" stroke="white" stroke-opacity="0.5" stroke-width="35"/>
<line x1="1367.41" y1="0.287779" x2="1146.41" y2="314.288" stroke="white"/>
<line x1="1382.41" y1="0.287779" x2="1161.41" y2="314.288" stroke="white"/>
<line x1="1397.41" y1="0.287779" x2="1176.41" y2="314.288" stroke="white"/>
<line x1="1412.41" y1="0.287779" x2="1191.41" y2="314.288" stroke="white"/>
<line x1="1428.41" y1="0.288036" x2="1206.41" y2="315.288" stroke="white"/>
</svg>
