<svg width="60" height="60" viewBox="0 0 60 60" fill="none" xmlns="http://www.w3.org/2000/svg">
<path d="M16.25 50H12.5C9.73858 50 7.5 47.7614 7.5 45V10C7.5 7.23858 9.73858 5 12.5 5H47.5C50.2614 5 52.5 7.23858 52.5 10V45C52.5 47.7614 50.2614 50 47.5 50H43.75M30 47.5C34.1421 47.5 37.5 44.1421 37.5 40C37.5 35.8579 34.1421 32.5 30 32.5C25.8579 32.5 22.5 35.8579 22.5 40C22.5 44.1421 25.8579 47.5 30 47.5ZM30 47.5L30.0536 47.4995L22.0717 55.4814L15.0006 48.4103L22.5491 40.8618M30 47.5L37.982 55.4814L45.0531 48.4103L37.5046 40.8618M22.5 15H37.5M17.5 23.75H42.5" stroke="white" stroke-width="3" stroke-linecap="round" stroke-linejoin="round"/>
</svg>
