<svg width="60" height="60" viewBox="0 0 60 60" fill="none" xmlns="http://www.w3.org/2000/svg">
<path d="M22.5 5V10M37.5 5V10M22.5 50V55M37.5 50V55M50 22.5H55M50 35H55M5 22.5H10M5 35H10M22 50H38C42.2004 50 44.3006 50 45.9049 49.1825C47.3161 48.4635 48.4635 47.3161 49.1825 45.9049C50 44.3006 50 42.2004 50 38V22C50 17.7996 50 15.6994 49.1825 14.0951C48.4635 12.6839 47.3161 11.5365 45.9049 10.8175C44.3006 10 42.2004 10 38 10H22C17.7996 10 15.6994 10 14.0951 10.8175C12.6839 11.5365 11.5365 12.6839 10.8175 14.0951C10 15.6994 10 17.7996 10 22V38C10 42.2004 10 44.3006 10.8175 45.9049C11.5365 47.3161 12.6839 48.4635 14.0951 49.1825C15.6994 50 17.7996 50 22 50ZM26.5 37.5H33.5C34.9001 37.5 35.6002 37.5 36.135 37.2275C36.6054 36.9878 36.9878 36.6054 37.2275 36.135C37.5 35.6002 37.5 34.9001 37.5 33.5V26.5C37.5 25.0999 37.5 24.3998 37.2275 23.865C36.9878 23.3946 36.6054 23.0122 36.135 22.7725C35.6002 22.5 34.9001 22.5 33.5 22.5H26.5C25.0999 22.5 24.3998 22.5 23.865 22.7725C23.3946 23.0122 23.0122 23.3946 22.7725 23.865C22.5 24.3998 22.5 25.0999 22.5 26.5V33.5C22.5 34.9001 22.5 35.6002 22.7725 36.135C23.0122 36.6054 23.3946 36.9878 23.865 37.2275C24.3998 37.5 25.0999 37.5 26.5 37.5Z" stroke="white" stroke-width="3" stroke-linecap="round" stroke-linejoin="round"/>
</svg>
