<svg width="60" height="60" viewBox="0 0 60 60" fill="none" xmlns="http://www.w3.org/2000/svg">
<path d="M30 37.5C34.1421 37.5 37.5 34.1421 37.5 30C37.5 25.8579 34.1421 22.5 30 22.5C25.8579 22.5 22.5 25.8579 22.5 30C22.5 34.1421 25.8579 37.5 30 37.5Z" stroke="white" stroke-width="3" stroke-linecap="round" stroke-linejoin="round"/>
<path d="M46.8182 36.8182C46.5156 37.5037 46.4254 38.2641 46.5591 39.0013C46.6928 39.7386 47.0442 40.4189 47.5682 40.9545L47.7045 41.0909C48.1272 41.5131 48.4624 42.0144 48.6912 42.5662C48.9199 43.118 49.0377 43.7095 49.0377 44.3068C49.0377 44.9042 48.9199 45.4956 48.6912 46.0475C48.4624 46.5993 48.1272 47.1006 47.7045 47.5227C47.2824 47.9453 46.7811 48.2806 46.2293 48.5094C45.6775 48.7381 45.086 48.8558 44.4886 48.8558C43.8913 48.8558 43.2998 48.7381 42.748 48.5094C42.1962 48.2806 41.6949 47.9453 41.2727 47.5227L41.1364 47.3864C40.6007 46.8624 39.9204 46.5109 39.1832 46.3773C38.4459 46.2436 37.6855 46.3338 37 46.6364C36.3278 46.9245 35.7545 47.4028 35.3507 48.0126C34.9469 48.6223 34.7302 49.3368 34.7273 50.0682V50.4545C34.7273 51.6601 34.2484 52.8162 33.3959 53.6687C32.5435 54.5211 31.3873 55 30.1818 55C28.9763 55 27.8201 54.5211 26.9677 53.6687C26.1153 52.8162 25.6364 51.6601 25.6364 50.4545V50.25C25.6188 49.4977 25.3753 48.7682 24.9375 48.1561C24.4998 47.5441 23.888 47.0779 23.1818 46.8182C22.4963 46.5156 21.7359 46.4254 20.9987 46.5591C20.2614 46.6928 19.5811 47.0442 19.0455 47.5682L18.9091 47.7045C18.4869 48.1272 17.9856 48.4624 17.4338 48.6912C16.882 48.9199 16.2905 49.0377 15.6932 49.0377C15.0958 49.0377 14.5044 48.9199 13.9525 48.6912C13.4007 48.4624 12.8994 48.1272 12.4773 47.7045C12.0547 47.2824 11.7194 46.7811 11.4906 46.2293C11.2619 45.6775 11.1442 45.086 11.1442 44.4886C11.1442 43.8913 11.2619 43.2998 11.4906 42.748C11.7194 42.1962 12.0547 41.6949 12.4773 41.2727L12.6136 41.1364C13.1376 40.6007 13.4891 39.9204 13.6227 39.1832C13.7564 38.4459 13.6662 37.6855 13.3636 37C13.0755 36.3278 12.5972 35.7545 11.9874 35.3507C11.3777 34.9469 10.6632 34.7302 9.93182 34.7273H9.54545C8.33993 34.7273 7.18377 34.2484 6.33133 33.3959C5.47889 32.5435 5 31.3873 5 30.1818C5 28.9763 5.47889 27.8201 6.33133 26.9677C7.18377 26.1153 8.33993 25.6364 9.54545 25.6364H9.75C10.5023 25.6188 11.2318 25.3753 11.8439 24.9375C12.4559 24.4998 12.9221 23.888 13.1818 23.1818C13.4844 22.4963 13.5746 21.7359 13.4409 20.9987C13.3072 20.2614 12.9558 19.5811 12.4318 19.0455L12.2955 18.9091C11.8728 18.4869 11.5376 17.9856 11.3088 17.4338C11.0801 16.882 10.9623 16.2905 10.9623 15.6932C10.9623 15.0958 11.0801 14.5044 11.3088 13.9525C11.5376 13.4007 11.8728 12.8994 12.2955 12.4773C12.7176 12.0547 13.2189 11.7194 13.7707 11.4906C14.3225 11.2619 14.914 11.1442 15.5114 11.1442C16.1087 11.1442 16.7002 11.2619 17.252 11.4906C17.8038 11.7194 18.3051 12.0547 18.7273 12.4773L18.8636 12.6136C19.3993 13.1376 20.0796 13.4891 20.8168 13.6227C21.5541 13.7564 22.3145 13.6662 23 13.3636H23.1818C23.854 13.0755 24.4273 12.5972 24.8311 11.9874C25.2349 11.3777 25.4516 10.6632 25.4545 9.93182V9.54545C25.4545 8.33993 25.9334 7.18377 26.7859 6.33133C27.6383 5.47889 28.7945 5 30 5C31.2055 5 32.3617 5.47889 33.2141 6.33133C34.0666 7.18377 34.5455 8.33993 34.5455 9.54545V9.75C34.5484 10.4813 34.7651 11.1959 35.1689 11.8056C35.5727 12.4154 36.146 12.8937 36.8182 13.1818C37.5037 13.4844 38.2641 13.5746 39.0013 13.4409C39.7386 13.3072 40.4189 12.9558 40.9545 12.4318L41.0909 12.2955C41.5131 11.8728 42.0144 11.5376 42.5662 11.3088C43.118 11.0801 43.7095 10.9623 44.3068 10.9623C44.9042 10.9623 45.4956 11.0801 46.0475 11.3088C46.5993 11.5376 47.1006 11.8728 47.5227 12.2955C47.9453 12.7176 48.2806 13.2189 48.5094 13.7707C48.7381 14.3225 48.8558 14.914 48.8558 15.5114C48.8558 16.1087 48.7381 16.7002 48.5094 17.252C48.2806 17.8038 47.9453 18.3051 47.5227 18.7273L47.3864 18.8636C46.8624 19.3993 46.5109 20.0796 46.3773 20.8168C46.2436 21.5541 46.3338 22.3145 46.6364 23V23.1818C46.9245 23.854 47.4028 24.4273 48.0126 24.8311C48.6223 25.2349 49.3368 25.4516 50.0682 25.4545H50.4545C51.6601 25.4545 52.8162 25.9334 53.6687 26.7859C54.5211 27.6383 55 28.7945 55 30C55 31.2055 54.5211 32.3617 53.6687 33.2141C52.8162 34.0666 51.6601 34.5455 50.4545 34.5455H50.25C49.5187 34.5484 48.8041 34.7651 48.1944 35.1689C47.5846 35.5727 47.1063 36.146 46.8182 36.8182Z" stroke="white" stroke-width="3" stroke-linecap="round" stroke-linejoin="round"/>
</svg>
