<svg width="60" height="60" viewBox="0 0 60 60" fill="none" xmlns="http://www.w3.org/2000/svg">
<path d="M30 40V30M30 20H30.025M5 21.3069V38.6931C5 39.3046 5 39.6104 5.06908 39.8981C5.13032 40.1532 5.23133 40.397 5.3684 40.6207C5.523 40.873 5.73919 41.0892 6.17157 41.5216L18.4784 53.8284C18.9108 54.2608 19.127 54.477 19.3793 54.6316C19.603 54.7687 19.8468 54.8697 20.1019 54.9309C20.3896 55 20.6954 55 21.3069 55H38.6931C39.3046 55 39.6104 55 39.8981 54.9309C40.1532 54.8697 40.397 54.7687 40.6207 54.6316C40.873 54.477 41.0892 54.2608 41.5216 53.8284L53.8284 41.5216C54.2608 41.0892 54.477 40.873 54.6316 40.6207C54.7687 40.397 54.8697 40.1532 54.9309 39.8981C55 39.6104 55 39.3046 55 38.6931V21.3069C55 20.6954 55 20.3896 54.9309 20.1019C54.8697 19.8468 54.7687 19.603 54.6316 19.3793C54.477 19.127 54.2608 18.9108 53.8284 18.4784L41.5216 6.17157C41.0892 5.73919 40.873 5.523 40.6207 5.3684C40.397 5.23133 40.1532 5.13032 39.8981 5.06908C39.6104 5 39.3046 5 38.6931 5H21.3069C20.6954 5 20.3896 5 20.1019 5.06908C19.8468 5.13032 19.603 5.23133 19.3793 5.3684C19.127 5.523 18.9108 5.73919 18.4784 6.17157L6.17157 18.4784C5.73919 18.9108 5.523 19.127 5.3684 19.3793C5.23133 19.603 5.13032 19.8468 5.06908 20.1019C5 20.3896 5 20.6954 5 21.3069Z" stroke="white" stroke-width="3" stroke-linecap="round" stroke-linejoin="round"/>
</svg>
