<svg width="50" height="50" viewBox="0 0 50 50" fill="none" xmlns="http://www.w3.org/2000/svg">
<path d="M10.4167 10.395C10.4167 8.37172 10.4167 7.36009 10.8385 6.80244C11.206 6.31663 11.7678 6.01601 12.3758 5.9797C13.0738 5.93803 13.9155 6.49918 15.599 7.62148L37.5064 22.2264C38.8974 23.1538 39.5929 23.6174 39.8353 24.2019C40.0472 24.7128 40.0472 25.287 39.8353 25.798C39.5929 26.3824 38.8974 26.8461 37.5064 27.7734L15.599 42.3784C13.9155 43.5007 13.0738 44.0618 12.3758 44.0201C11.7678 43.9838 11.206 43.6832 10.8385 43.1974C10.4167 42.6397 10.4167 41.6281 10.4167 39.6049V10.395Z" stroke="white" stroke-width="3" stroke-linecap="round" stroke-linejoin="round"/>
</svg>
