<svg width="30" height="30" viewBox="0 0 30 30" fill="none" xmlns="http://www.w3.org/2000/svg">
<path d="M6.25 6.23713C6.25 5.02318 6.25 4.4162 6.50311 4.08161C6.72362 3.79013 7.06065 3.60975 7.4255 3.58797C7.84429 3.56296 8.34933 3.89965 9.3594 4.57303L22.5038 13.336C23.3385 13.8924 23.7558 14.1706 23.9012 14.5213C24.0283 14.8278 24.0283 15.1724 23.9012 15.4789C23.7558 15.8296 23.3385 16.1078 22.5038 16.6642L9.3594 25.4272C8.34933 26.1005 7.84429 26.4372 7.4255 26.4122C7.06065 26.3904 6.72362 26.2101 6.50311 25.9186C6.25 25.584 6.25 24.977 6.25 23.7631V6.23713Z" stroke="white" stroke-width="3" stroke-linecap="round" stroke-linejoin="round"/>
</svg>
